<svg width="491" height="260" viewBox="0 0 491 260" fill="none" xmlns="http://www.w3.org/2000/svg">
<g clip-path="url(#clip0_44_1043)">
<rect opacity="0.85" x="52" y="78" width="92" height="131" fill="#0047FF"/>
<rect opacity="0.9" x="347" y="63" width="70" height="107" fill="#FFE500"/>
<rect x="52" y="209" width="365" height="3" fill="#EDEAE4"/>
<line x1="40.4456" y1="238.737" x2="453.445" y2="326.523" stroke="#EDEAE4" stroke-width="0.975"/>
<line x1="59.5701" y1="219.781" x2="439.676" y2="273.202" stroke="#EDEAE4" stroke-width="0.4875"/>
<line x1="78.7399" y1="200.668" x2="423.356" y2="224.766" stroke="#EDEAE4" stroke-width="0.325" stroke-dasharray="3.25 3.25"/>
<line x1="98" y1="184.837" x2="405" y2="184.837" stroke="#EDEAE4" stroke-width="0.325"/>
<path opacity="0.4" d="M225.941 112.23L273.537 178.63L151.523 145.936L225.941 112.23Z" fill="#0047FF"/>
<path opacity="0.5" d="M213.68 131.382L281.339 178.391L134.024 152.415L213.68 131.382Z" fill="#FFE500"/>
<rect x="151.659" y="131.738" width="15.3537" height="57.5763" transform="rotate(75 151.659 131.738)" fill="#EDEAE4"/>
<rect x="224.589" y="120.223" width="17.2729" height="61.4147" transform="rotate(-35 224.589 120.223)" fill="#EDEAE4"/>
<rect x="239.942" y="158.607" width="13.4345" height="65.2531" transform="rotate(25 239.942 158.607)" fill="#EDEAE4"/>
<rect x="197.72" y="93.354" width="34.5458" height="69.0915" transform="rotate(-45 197.72 93.354)" fill="#EDEAE4"/>
<rect x="228.427" y="70.3235" width="11.5153" height="46.061" transform="rotate(-115 228.427 70.3235)" fill="#EDEAE4"/>
<rect x="255.296" y="43.4546" width="9.59604" height="42.2226" transform="rotate(-55 255.296 43.4546)" fill="#EDEAE4"/>
<rect x="140.143" y="116.385" width="8.44452" height="42.2226" transform="rotate(110 140.143 116.385)" fill="#EDEAE4"/>
<rect x="243.781" y="62.6467" width="21.1113" height="21.1113" fill="#EDEAE4"/>
<rect x="247.619" y="67.2528" width="17.2729" height="4.6061" fill="#FFE500"/>
<path d="M265.852 66.4854L270.007 70.8036H261.696L265.852 66.4854Z" fill="#FF6B00"/>
</g>
<defs>
<clipPath id="clip0_44_1043"><rect width="491" height="260" fill="#1A1A1A"/></clipPath>
</defs>
</svg>
