<svg width="491" height="260" viewBox="0 0 491 260" fill="none" xmlns="http://www.w3.org/2000/svg">
<g clip-path="url(#clip0_44_1066)">
<rect opacity="0.9" x="384.553" y="33.1914" width="154.894" height="210.213" fill="#E50000"/>
<rect opacity="0.8" x="-41.4043" y="116.17" width="188.085" height="121.702" fill="#00D4FF"/>
<rect x="-30.3403" y="243.404" width="44.2553" height="16.5957" fill="#E50000"/>
<rect x="14.1915" y="243.681" width="43.7021" height="16.0426" fill="white" stroke="#1A1A1A" stroke-width="0.553191"/>
<rect x="58.1703" y="243.404" width="44.2553" height="16.5957" fill="#E50000"/>
<rect x="102.702" y="243.681" width="43.7021" height="16.0426" fill="white" stroke="#1A1A1A" stroke-width="0.553191"/>
<rect x="146.681" y="243.404" width="44.2553" height="16.5957" fill="#E50000"/>
<rect x="191.213" y="243.681" width="43.7021" height="16.0426" fill="white" stroke="#1A1A1A" stroke-width="0.553191"/>
<rect x="235.192" y="243.404" width="44.2553" height="16.5957" fill="#E50000"/>
<line x1="-58" y1="258.894" x2="550.511" y2="258.894" stroke="#1A1A1A" stroke-width="2.21277"/>
<line x1="-2.68066" y1="187.808" x2="495.192" y2="187.808" stroke="#1A1A1A" stroke-width="0.553191" stroke-dasharray="11.06 5.53"/>
<path opacity="0.7" d="M148.236 60.1242L264.218 110.859L50.731 140.863L148.236 60.1242Z" fill="#FF6B00"/>
<path opacity="0.5" d="M196.068 35.0947L291.086 76.7592L109.729 92.6259L196.068 35.0947Z" fill="#00D4FF"/>
<path d="M268.383 110.638L405.173 145.04L352.924 200.704H183.842L131.593 145.04L268.383 110.638Z" fill="#1A1A1A"/>
<rect x="345.83" y="154.894" width="71.9149" height="24.8936" transform="rotate(12 345.83 154.894)" fill="#1A1A1A"/>
<rect x="406.681" y="138.298" width="13.8298" height="38.7234" fill="#E50000"/>
<path d="M237.957 88.5106L259.516 113.404H216.399L237.957 88.5106Z" fill="#1A1A1A"/>
<rect x="251.787" y="118.936" width="41.4894" height="16.5957" fill="white"/>
<rect x="260.085" y="110.638" width="19.3617" height="16.5957" rx="4.42553" fill="#E50000"/>
<rect x="135.617" y="82.9788" width="22.1277" height="55.3191" transform="rotate(-25 135.617 82.9788)" fill="#1A1A1A"/>
<rect x="124.553" y="71.9149" width="60.8511" height="19.3617" fill="#1A1A1A"/>
<rect x="116.255" y="63.6172" width="19.3617" height="35.9574" fill="#E50000"/>
<rect x="224.128" y="146.596" width="99.5745" height="11.0638" fill="#00D4FF"/>
<rect x="190.936" y="157.66" width="116.17" height="13.8298" fill="#FF6B00"/>
<rect x="356.894" y="160.426" width="41.4894" height="52.5532" rx="6.6383" fill="#1A1A1A"/>
<rect x="365.192" y="168.724" width="24.8936" height="35.9574" rx="3.31915" fill="white"/>
<circle cx="377.362" cy="180.894" r="5.53191" fill="#E50000"/>
<rect x="157.745" y="143.83" width="52.5532" height="66.383" rx="8.85106" fill="#1A1A1A"/>
<rect x="168.809" y="154.894" width="30.4255" height="44.2553" rx="4.42553" fill="white"/>
<circle cx="185.128" cy="171.213" r="6.91489" fill="#E50000"/>
</g>
<defs>
<clipPath id="clip0_44_1066"><rect width="491" height="260" fill="white"/></clipPath>
</defs>
</svg>
