<svg width="491" height="260" viewBox="0 0 491 260" fill="none" xmlns="http://www.w3.org/2000/svg">
<g clip-path="url(#clip0_44_1012)">
<rect opacity="0.85" x="65" y="46" width="110" height="150" fill="#CC00CC"/>
<rect opacity="0.8" x="313" y="69" width="135" height="79" fill="#00D4FF"/>
<rect x="428" width="3" height="243" fill="#EDEAE4"/>
<line x1="37.4414" y1="195.038" x2="456.623" y2="307.357" stroke="#EDEAE4" stroke-width="1.33163"/>
<line x1="57.0428" y1="171.765" x2="444.312" y2="247.042" stroke="#EDEAE4" stroke-width="0.49936" stroke-dasharray="9.99 4.99"/>
<path opacity="0.4" d="M247.485 82.9877L306.068 141.571L167.459 104.431L247.485 82.9877Z" fill="#CC00CC"/>
<path opacity="0.5" d="M173.971 110.175L221.906 147.589L114.963 124.858L173.971 110.175Z" fill="#00D4FF"/>
<circle cx="210.857" cy="144.394" r="25.2859" stroke="#EDEAE4" stroke-width="4.66069"/>
<circle cx="210.857" cy="144.393" r="5.91776" fill="#EDEAE4"/>
<circle cx="344.993" cy="144.394" r="25.2859" stroke="#EDEAE4" stroke-width="4.66069"/>
<circle cx="344.993" cy="144.393" r="5.91776" fill="#EDEAE4"/>
<line x1="210.857" y1="143.062" x2="262.144" y2="143.062" stroke="#EDEAE4" stroke-width="2.66325"/>
<line x1="209.65" y1="143.831" x2="236.327" y2="86.6219" stroke="#EDEAE4" stroke-width="2.66325"/>
<line x1="261.288" y1="145.413" x2="203.867" y2="97.2311" stroke="#EDEAE4" stroke-width="2.66325"/>
<line x1="260.833" y1="144.162" x2="273.164" y2="74.2278" stroke="#EDEAE4" stroke-width="2.66325"/>
<line x1="246.479" y1="75.9986" x2="321.152" y2="82.5317" stroke="#EDEAE4" stroke-width="2.66325"/>
<line x1="322.608" y1="80.9257" x2="339.967" y2="145.708" stroke="#EDEAE4" stroke-width="2.66325"/>
<rect x="234.528" y="71.4073" width="19.7259" height="3.94517" rx="1.33163" fill="#EDEAE4"/>
<rect x="315.404" y="75.3525" width="11.8355" height="3.15614" transform="rotate(15 315.404 75.3525)" fill="#EDEAE4"/>
<rect x="311.459" y="79.2977" width="4.73421" height="15.7807" rx="1.99744" fill="#EDEAE4"/>
<rect x="234.528" y="77.3252" width="13.8081" height="39.4517" transform="rotate(35 234.528 77.3252)" fill="#EDEAE4"/>
<rect x="258.199" y="104.942" width="9.86293" height="35.5066" transform="rotate(-20 258.199 104.942)" fill="#EDEAE4"/>
<rect x="246.363" y="49.7092" width="25.6436" height="59.1776" transform="rotate(-68 246.363 49.7092)" fill="#EDEAE4"/>
<rect x="289.76" y="59.5723" width="9.86293" height="43.3969" transform="rotate(-40 289.76 59.5723)" fill="#EDEAE4"/>
<circle cx="302.582" cy="51.9249" r="8.87664" fill="#EDEAE4"/>
<path d="M303.098 31.584L318.094 41.3503L294.993 47.5403L303.098 31.584Z" fill="#EDEAE4"/>
<rect x="307.513" y="45.0209" width="7.89035" height="3.15614" fill="#00D4FF"/>
</g>
<defs>
<clipPath id="clip0_44_1012"><rect width="491" height="260" fill="#1A1A1A"/></clipPath>
</defs>
</svg>
