<svg width="491" height="260" viewBox="0 0 491 260" fill="none" xmlns="http://www.w3.org/2000/svg">
<g clip-path="url(#clip0_44_971)">
<rect opacity="0.9" x="42.7632" y="54.7368" width="136.842" height="205.263" fill="#FFD600"/>
<rect x="320.724" y="16.25" width="76.9737" height="171.053" fill="#0055FF"/>
<rect x="290.789" y="153.092" width="51.3158" height="51.3158" fill="#FF6B00"/>
<line x1="21.3816" y1="203.553" x2="491.776" y2="203.553" stroke="#1A1A1A" stroke-width="1.71053"/>
<line x1="64.1448" y1="139.836" x2="449.013" y2="139.836" stroke="#1A1A1A" stroke-width="0.855263"/>
<line x1="257.007" y1="140.263" x2="257.007" y2="204.408" stroke="#1A1A1A" stroke-width="0.855263"/>
<line x1="64.6888" y1="139.923" x2="137.204" y2="255.972" stroke="#1A1A1A" stroke-width="1.28289"/>
<line x1="312.697" y1="82.9008" x2="219.49" y2="216.013" stroke="#1A1A1A" stroke-width="1.28289"/>
<rect x="455.211" y="80.1579" width="20.5263" height="1.71053" fill="#FF6B00"/>
<path opacity="0.8" d="M177.565 83.0609L212.705 152.243L112.543 125.405L177.565 83.0609Z" fill="#00B8D4"/>
<path opacity="0.6" d="M170.013 98.4478L233.937 119.743L117.228 140.322L170.013 98.4478Z" fill="#FFD600"/>
<rect x="153.947" y="161.645" width="21.3816" height="76.9737" transform="rotate(-35 153.947 161.645)" fill="#1A1A1A"/>
<rect x="188.158" y="212.961" width="34.2105" height="17.1053" fill="#1A1A1A"/>
<rect x="222.368" y="144.539" width="27.7961" height="102.632" transform="rotate(-50 222.368 144.539)" fill="#1A1A1A"/>
<rect x="290.789" y="204.408" width="42.7632" height="17.1053" fill="#1A1A1A"/>
<rect x="179.605" y="76.1184" width="59.8684" height="89.8026" transform="rotate(-15 179.605 76.1184)" fill="#1A1A1A"/>
<rect x="188.158" y="41.9076" width="27.7961" height="27.7961" fill="#1A1A1A"/>
<rect x="187.303" y="48.3221" width="29.9342" height="5.13158" fill="white"/>
<path d="M219.939 46.2594L225.433 54.3723L211.124 50.5382L219.939 46.2594Z" fill="#FF6B00"/>
<rect x="230.921" y="80.3947" width="76.9737" height="16.25" transform="rotate(12 230.921 80.3947)" fill="#1A1A1A"/>
<rect x="145.395" y="84.671" width="51.3158" height="19.2434" transform="rotate(-30 145.395 84.671)" fill="#1A1A1A"/>
<rect x="119.737" y="54.7368" width="59.8684" height="19.2434" transform="rotate(45 119.737 54.7368)" fill="#1A1A1A"/>
<rect width="5.02414" height="46.0546" transform="matrix(0.691654 0.722229 -0.691654 0.722229 83.5419 46.1842)" fill="#1A1A1A"/>
<rect y="3.08848" width="41.7783" height="54.3386" rx="14.9671" transform="matrix(0.691654 0.722229 -0.691654 0.722229 42.6775 4.27897)" fill="#F5F3EF"/>
<rect y="3.08848" width="41.7783" height="54.3386" rx="14.9671" transform="matrix(0.691654 0.722229 -0.691654 0.722229 42.6775 4.27897)" stroke="#1A1A1A" stroke-width="4.27632"/>
<line x1="43.9174" y1="12.6867" x2="43.9174" y2="69.4677" stroke="#1A1A1A" stroke-width="0.855263"/>
<line x1="49.8328" y1="18.8636" x2="49.8328" y2="75.6446" stroke="#1A1A1A" stroke-width="0.855263"/>
<line x1="55.7483" y1="25.0404" x2="55.7483" y2="81.8214" stroke="#1A1A1A" stroke-width="0.855263"/>
<line x1="34.6259" y1="15.3382" x2="89.0032" y2="15.3382" stroke="#1A1A1A" stroke-width="0.855263"/>
<line x1="25.7527" y1="24.6036" x2="80.1299" y2="24.6036" stroke="#1A1A1A" stroke-width="0.855263"/>
<line x1="16.8795" y1="33.8691" x2="71.2568" y2="33.8691" stroke="#1A1A1A" stroke-width="0.855263"/>
<rect width="10.0483" height="4.18678" transform="matrix(0.691654 0.722229 -0.691654 0.722229 63.0654 0)" fill="#FF6B00"/>
<rect width="10.0483" height="4.18678" transform="matrix(0.691654 0.722229 -0.691654 0.722229 30.3032 34.2105)" fill="#FF6B00"/>
<circle cx="399.408" cy="90.6581" r="9.62171" fill="#FFD600" stroke="#1A1A1A" stroke-width="1.28289"/>
<path opacity="0.8" d="M268.8 104.845L227.089 99.4196L302.21 79.2909L268.8 104.845Z" fill="#FFD600"/>
<rect width="85.5263" height="20.5263" transform="translate(17.1053 161.645)" fill="#1A1A1A"/>
</g>
<defs>
<clipPath id="clip0_44_971"><rect width="491" height="260" fill="white"/></clipPath>
</defs>
</svg>
